<svg xmlns="http://www.w3.org/2000/svg" viewBox="0 0 512 512">
  <defs>
    <filter id="phosphorGlow2" x="-50%" y="-50%" width="200%" height="200%">
      <feGaussianBlur stdDeviation="10"/>
    </filter>
  </defs>
  <g id="icon">
    <rect width="512" height="512" rx="80" fill="#0b0c09"/>
    <rect x="16" y="16" width="480" height="480" rx="64" fill="none" stroke="#2a2b20" stroke-width="2"/>
    <g id="grid" stroke="#1f2117" stroke-width="2">
      <line x1="32" y1="160" x2="480" y2="160"/>
      <line x1="32" y1="256" x2="480" y2="256"/>
      <line x1="32" y1="352" x2="480" y2="352"/>
      <line x1="160" y1="32" x2="160" y2="480"/>
      <line x1="256" y1="32" x2="256" y2="480"/>
      <line x1="352" y1="32" x2="352" y2="480"/>
    </g>
    <g id="ticks" stroke="#2a2b20" stroke-width="3">
      <line x1="32" y1="256" x2="50" y2="256"/>
      <line x1="462" y1="256" x2="480" y2="256"/>
      <line x1="256" y1="32" x2="256" y2="50"/>
      <line x1="256" y1="462" x2="256" y2="480"/>
    </g>
    <path id="waveGlow" d="M 32 320 L 140 320 L 180 320 L 220 130 L 256 320 L 360 320 L 480 320"
          fill="none" stroke="#9ef26a" stroke-width="46"
          stroke-linecap="round" stroke-linejoin="round"
          opacity="0.35" filter="url(#phosphorGlow2)"/>
    <path id="wave" d="M 32 320 L 140 320 L 180 320 L 220 130 L 256 320 L 360 320 L 480 320"
          fill="none" stroke="#9ef26a" stroke-width="14"
          stroke-linecap="round" stroke-linejoin="round"/>
    <circle cx="220" cy="130" r="16" fill="#0b0c09" stroke="#9ef26a" stroke-width="6"/>
    <circle cx="220" cy="130" r="6" fill="#9ef26a"/>
  </g>
</svg>
